# MagicaVoxel @ Ephtracy

# group
o 

# material
mtllib car.mtl
usemtl palette

# normals
vn -1 0 0
vn 1 0 0
vn 0 0 1
vn 0 0 -1
vn 0 -1 0
vn 0 1 0

# texcoords
vt 0.958984 0.5
vt 0.970703 0.5
vt 0.982422 0.5
vt 0.994141 0.5

# verts
v 0.1 2 -0.3
v 0.1 2 -0.4
v 0.1 2 -1.2
v 0.1 2 -1.3
v 0.1 2.2 -0.4
v 0.1 2.2 -1.2
v 0.1 2.3 -0.3
v 0.1 2.3 -0.4
v 0.1 2.3 -1.2
v 0.1 2.3 -1.3
v 0.1 2.5 -0.5
v 0.1 2.5 -0.6
v 0.1 2.5 -1
v 0.1 2.5 -1.1
v 0.1 2.6 -0.5
v 0.1 2.6 -0.6
v 0.1 2.6 -1
v 0.1 2.6 -1.1
v 0.1 2.7 -0.4
v 0.1 2.7 -1.2
v 0.2 2.1 -0.4
v 0.2 2.1 -1.2
v 0.2 2.2 -0.4
v 0.2 2.2 -1.2
v 0.5 2.7 -0.4
v 0.5 2.7 -0.5
v 0.5 2.7 -1.1
v 0.5 2.7 -1.2
v 0.5 3 -0.5
v 0.5 3 -1.1
v 0.5 3.1 -0.4
v 0.5 3.1 -1.2
v 1.1 2 -0.3
v 1.1 2 -0.4
v 1.1 2 -1.2
v 1.1 2 -1.3
v 1.1 2.1 -0.4
v 1.1 2.1 -0.5
v 1.1 2.1 -1.1
v 1.1 2.1 -1.2
v 1.1 2.2 -0.4
v 1.1 2.2 -0.5
v 1.1 2.2 -1.1
v 1.1 2.2 -1.2
v 1.1 2.3 -0.3
v 1.1 2.3 -0.4
v 1.1 2.3 -1.2
v 1.1 2.3 -1.3
v 0.4 2 -0.3
v 0.4 2 -0.4
v 0.4 2 -1.2
v 0.4 2 -1.3
v 0.4 2.1 -0.4
v 0.4 2.1 -0.5
v 0.4 2.1 -1.1
v 0.4 2.1 -1.2
v 0.4 2.2 -0.4
v 0.4 2.2 -0.5
v 0.4 2.2 -1.1
v 0.4 2.2 -1.2
v 0.4 2.3 -0.3
v 0.4 2.3 -0.4
v 0.4 2.3 -1.2
v 0.4 2.3 -1.3
v 1.3 2.1 -0.4
v 1.3 2.1 -1.2
v 1.3 2.2 -0.4
v 1.3 2.2 -1.2
v 1.4 2 -0.3
v 1.4 2 -0.4
v 1.4 2 -1.2
v 1.4 2 -1.3
v 1.4 2.2 -0.4
v 1.4 2.2 -1.2
v 1.4 2.3 -0.3
v 1.4 2.3 -0.4
v 1.4 2.3 -1.2
v 1.4 2.3 -1.3
v 1.4 3.1 -0.4
v 1.4 3.1 -1.2
v 0.1 2 -0.3
v 0.1 2.3 -0.3
v 0.2 2.1 -0.3
v 0.2 2.2 -0.3
v 0.3 2.1 -0.3
v 0.3 2.2 -0.3
v 0.4 2 -0.3
v 0.4 2.3 -0.3
v 1.1 2 -0.3
v 1.1 2.3 -0.3
v 1.2 2.1 -0.3
v 1.2 2.2 -0.3
v 1.3 2.1 -0.3
v 1.3 2.2 -0.3
v 1.4 2 -0.3
v 1.4 2.3 -0.3
v 0.1 2.3 -0.4
v 0.1 2.7 -0.4
v 0.4 2.2 -0.4
v 0.4 2.3 -0.4
v 0.5 2.7 -0.4
v 0.5 3.1 -0.4
v 0.6 2.7 -0.4
v 0.6 3 -0.4
v 0.9 2.7 -0.4
v 0.9 3 -0.4
v 1.1 2.2 -0.4
v 1.1 2.3 -0.4
v 1.4 2.3 -0.4
v 1.4 3.1 -0.4
v 0.4 2.1 -0.5
v 0.4 2.2 -0.5
v 1.1 2.1 -0.5
v 1.1 2.2 -0.5
v 0.1 2 -1.2
v 0.1 2.2 -1.2
v 0.2 2.1 -1.2
v 0.2 2.2 -1.2
v 0.4 2 -1.2
v 0.4 2.1 -1.2
v 1.1 2 -1.2
v 1.1 2.1 -1.2
v 1.3 2.1 -1.2
v 1.3 2.2 -1.2
v 1.4 2 -1.2
v 1.4 2.2 -1.2
v 0.1 2 -0.4
v 0.1 2.2 -0.4
v 0.2 2.1 -0.4
v 0.2 2.2 -0.4
v 0.4 2 -0.4
v 0.4 2.1 -0.4
v 1.1 2 -0.4
v 1.1 2.1 -0.4
v 1.3 2.1 -0.4
v 1.3 2.2 -0.4
v 1.4 2 -0.4
v 1.4 2.2 -0.4
v 0.4 2.1 -1.1
v 0.4 2.2 -1.1
v 1.1 2.1 -1.1
v 1.1 2.2 -1.1
v 0.1 2.3 -1.2
v 0.1 2.7 -1.2
v 0.4 2.2 -1.2
v 0.4 2.3 -1.2
v 0.5 2.7 -1.2
v 0.5 3.1 -1.2
v 0.6 2.7 -1.2
v 0.6 3 -1.2
v 0.9 2.7 -1.2
v 0.9 3 -1.2
v 1.1 2.2 -1.2
v 1.1 2.3 -1.2
v 1.4 2.3 -1.2
v 1.4 3.1 -1.2
v 0.1 2 -1.3
v 0.1 2.3 -1.3
v 0.2 2.1 -1.3
v 0.2 2.2 -1.3
v 0.3 2.1 -1.3
v 0.3 2.2 -1.3
v 0.4 2 -1.3
v 0.4 2.3 -1.3
v 1.1 2 -1.3
v 1.1 2.3 -1.3
v 1.2 2.1 -1.3
v 1.2 2.2 -1.3
v 1.3 2.1 -1.3
v 1.3 2.2 -1.3
v 1.4 2 -1.3
v 1.4 2.3 -1.3
v 0.1 2 -0.3
v 0.4 2 -0.3
v 1.1 2 -0.3
v 1.4 2 -0.3
v 0.1 2 -0.4
v 0.4 2 -0.4
v 1.1 2 -0.4
v 1.4 2 -0.4
v 0.1 2 -1.2
v 0.4 2 -1.2
v 1.1 2 -1.2
v 1.4 2 -1.2
v 0.1 2 -1.3
v 0.4 2 -1.3
v 1.1 2 -1.3
v 1.4 2 -1.3
v 0.2 2.1 -0.4
v 0.4 2.1 -0.4
v 1.1 2.1 -0.4
v 1.3 2.1 -0.4
v 0.4 2.1 -0.5
v 1.1 2.1 -0.5
v 0.4 2.1 -1.1
v 1.1 2.1 -1.1
v 0.2 2.1 -1.2
v 0.4 2.1 -1.2
v 1.1 2.1 -1.2
v 1.3 2.1 -1.2
v 0.1 2.2 -0.4
v 0.2 2.2 -0.4
v 0.4 2.2 -0.4
v 1.1 2.2 -0.4
v 1.3 2.2 -0.4
v 1.4 2.2 -0.4
v 0.4 2.2 -0.5
v 1.1 2.2 -0.5
v 0.4 2.2 -1.1
v 1.1 2.2 -1.1
v 0.1 2.2 -1.2
v 0.2 2.2 -1.2
v 0.4 2.2 -1.2
v 1.1 2.2 -1.2
v 1.3 2.2 -1.2
v 1.4 2.2 -1.2
v 0.1 2.3 -0.3
v 0.4 2.3 -0.3
v 1.1 2.3 -0.3
v 1.4 2.3 -0.3
v 0.1 2.3 -0.4
v 0.4 2.3 -0.4
v 1.1 2.3 -0.4
v 1.4 2.3 -0.4
v 0.1 2.3 -1.2
v 0.4 2.3 -1.2
v 1.1 2.3 -1.2
v 1.4 2.3 -1.2
v 0.1 2.3 -1.3
v 0.4 2.3 -1.3
v 1.1 2.3 -1.3
v 1.4 2.3 -1.3
v 0.1 2.7 -0.4
v 0.5 2.7 -0.4
v 0.5 2.7 -0.5
v 0.5 2.7 -1.1
v 0.1 2.7 -1.2
v 0.5 2.7 -1.2
v 0.5 3.1 -0.4
v 1.4 3.1 -0.4
v 0.5 3.1 -1.2
v 1.4 3.1 -1.2

# faces
f 5/4/1 2/4/1 1/4/1
f 6/4/1 4/4/1 3/4/1
f 7/4/1 5/4/1 1/4/1
f 8/1/1 6/1/1 5/1/1
f 8/4/1 5/4/1 7/4/1
f 9/4/1 4/4/1 6/4/1
f 9/1/1 6/1/1 8/1/1
f 10/4/1 4/4/1 9/4/1
f 11/1/1 9/1/1 8/1/1
f 12/1/1 9/1/1 11/1/1
f 13/1/1 9/1/1 12/1/1
f 14/1/1 9/1/1 13/1/1
f 15/1/1 11/1/1 8/1/1
f 15/3/1 12/3/1 11/3/1
f 16/1/1 13/1/1 12/1/1
f 16/3/1 12/3/1 15/3/1
f 17/3/1 14/3/1 13/3/1
f 17/1/1 13/1/1 16/1/1
f 18/1/1 9/1/1 14/1/1
f 18/3/1 14/3/1 17/3/1
f 19/1/1 17/1/1 16/1/1
f 19/1/1 16/1/1 15/1/1
f 19/1/1 18/1/1 17/1/1
f 19/1/1 15/1/1 8/1/1
f 20/1/1 9/1/1 18/1/1
f 20/1/1 18/1/1 19/1/1
f 23/1/1 22/1/1 21/1/1
f 24/1/1 22/1/1 23/1/1
f 29/1/1 26/1/1 25/1/1
f 29/3/1 27/3/1 26/3/1
f 30/1/1 28/1/1 27/1/1
f 30/3/1 27/3/1 29/3/1
f 31/1/1 29/1/1 25/1/1
f 31/1/1 30/1/1 29/1/1
f 32/1/1 28/1/1 30/1/1
f 32/1/1 30/1/1 31/1/1
f 37/4/1 34/4/1 33/4/1
f 40/4/1 36/4/1 35/4/1
f 41/1/1 38/1/1 37/1/1
f 41/4/1 37/4/1 33/4/1
f 42/1/1 38/1/1 41/1/1
f 43/1/1 40/1/1 39/1/1
f 44/4/1 36/4/1 40/4/1
f 44/1/1 40/1/1 43/1/1
f 45/4/1 41/4/1 33/4/1
f 46/4/1 41/4/1 45/4/1
f 47/4/1 36/4/1 44/4/1
f 48/4/1 36/4/1 47/4/1
f 49/4/2 50/4/2 53/4/2
f 51/4/2 52/4/2 56/4/2
f 53/1/2 54/1/2 57/1/2
f 49/4/2 53/4/2 57/4/2
f 57/1/2 54/1/2 58/1/2
f 55/1/2 56/1/2 59/1/2
f 56/4/2 52/4/2 60/4/2
f 59/1/2 56/1/2 60/1/2
f 49/4/2 57/4/2 61/4/2
f 61/4/2 57/4/2 62/4/2
f 60/4/2 52/4/2 63/4/2
f 63/4/2 52/4/2 64/4/2
f 65/1/2 66/1/2 67/1/2
f 67/1/2 66/1/2 68/1/2
f 69/4/2 70/4/2 73/4/2
f 71/4/2 72/4/2 74/4/2
f 69/4/2 73/4/2 75/4/2
f 73/1/2 74/1/2 76/1/2
f 75/4/2 73/4/2 76/4/2
f 74/4/2 72/4/2 77/4/2
f 76/1/2 74/1/2 77/1/2
f 77/4/2 72/4/2 78/4/2
f 76/1/2 77/1/2 79/1/2
f 79/1/2 77/1/2 80/1/2
f 83/4/3 82/4/3 81/4/3
f 84/4/3 82/4/3 83/4/3
f 85/4/3 83/4/3 81/4/3
f 85/2/3 84/2/3 83/2/3
f 86/4/3 82/4/3 84/4/3
f 86/2/3 84/2/3 85/2/3
f 87/4/3 85/4/3 81/4/3
f 87/4/3 86/4/3 85/4/3
f 88/4/3 82/4/3 86/4/3
f 88/4/3 86/4/3 87/4/3
f 91/4/3 90/4/3 89/4/3
f 92/4/3 90/4/3 91/4/3
f 93/4/3 91/4/3 89/4/3
f 93/2/3 92/2/3 91/2/3
f 94/4/3 90/4/3 92/4/3
f 94/2/3 92/2/3 93/2/3
f 95/4/3 93/4/3 89/4/3
f 95/4/3 94/4/3 93/4/3
f 96/4/3 90/4/3 94/4/3
f 96/4/3 94/4/3 95/4/3
f 100/1/3 98/1/3 97/1/3
f 101/1/3 98/1/3 100/1/3
f 101/1/3 100/1/3 99/1/3
f 103/1/3 101/1/3 99/1/3
f 103/1/3 102/1/3 101/1/3
f 104/1/3 102/1/3 103/1/3
f 105/1/3 103/1/3 99/1/3
f 105/3/3 104/3/3 103/3/3
f 106/1/3 102/1/3 104/1/3
f 106/3/3 104/3/3 105/3/3
f 107/1/3 105/1/3 99/1/3
f 107/1/3 106/1/3 105/1/3
f 108/1/3 106/1/3 107/1/3
f 109/1/3 106/1/3 108/1/3
f 110/1/3 102/1/3 106/1/3
f 110/1/3 106/1/3 109/1/3
f 113/1/3 112/1/3 111/1/3
f 114/1/3 112/1/3 113/1/3
f 117/4/3 116/4/3 115/4/3
f 118/4/3 116/4/3 117/4/3
f 119/4/3 117/4/3 115/4/3
f 120/4/3 117/4/3 119/4/3
f 123/4/3 122/4/3 121/4/3
f 125/4/3 123/4/3 121/4/3
f 125/4/3 124/4/3 123/4/3
f 126/4/3 124/4/3 125/4/3
f 127/4/4 128/4/4 129/4/4
f 129/4/4 128/4/4 130/4/4
f 127/4/4 129/4/4 131/4/4
f 131/4/4 129/4/4 132/4/4
f 133/4/4 134/4/4 135/4/4
f 133/4/4 135/4/4 137/4/4
f 135/4/4 136/4/4 137/4/4
f 137/4/4 136/4/4 138/4/4
f 139/1/4 140/1/4 141/1/4
f 141/1/4 140/1/4 142/1/4
f 143/1/4 144/1/4 146/1/4
f 146/1/4 144/1/4 147/1/4
f 145/1/4 146/1/4 147/1/4
f 145/1/4 147/1/4 149/1/4
f 147/1/4 148/1/4 149/1/4
f 149/1/4 148/1/4 150/1/4
f 145/1/4 149/1/4 151/1/4
f 149/3/4 150/3/4 151/3/4
f 150/1/4 148/1/4 152/1/4
f 151/3/4 150/3/4 152/3/4
f 145/1/4 151/1/4 153/1/4
f 151/1/4 152/1/4 153/1/4
f 153/1/4 152/1/4 154/1/4
f 154/1/4 152/1/4 155/1/4
f 152/1/4 148/1/4 156/1/4
f 155/1/4 152/1/4 156/1/4
f 157/4/4 158/4/4 159/4/4
f 159/4/4 158/4/4 160/4/4
f 157/4/4 159/4/4 161/4/4
f 159/2/4 160/2/4 161/2/4
f 160/4/4 158/4/4 162/4/4
f 161/2/4 160/2/4 162/2/4
f 157/4/4 161/4/4 163/4/4
f 161/4/4 162/4/4 163/4/4
f 162/4/4 158/4/4 164/4/4
f 163/4/4 162/4/4 164/4/4
f 165/4/4 166/4/4 167/4/4
f 167/4/4 166/4/4 168/4/4
f 165/4/4 167/4/4 169/4/4
f 167/2/4 168/2/4 169/2/4
f 168/4/4 166/4/4 170/4/4
f 169/2/4 168/2/4 170/2/4
f 165/4/4 169/4/4 171/4/4
f 169/4/4 170/4/4 171/4/4
f 170/4/4 166/4/4 172/4/4
f 171/4/4 170/4/4 172/4/4
f 177/4/5 174/4/5 173/4/5
f 178/4/5 174/4/5 177/4/5
f 179/4/5 176/4/5 175/4/5
f 180/4/5 176/4/5 179/4/5
f 185/4/5 182/4/5 181/4/5
f 186/4/5 182/4/5 185/4/5
f 187/4/5 184/4/5 183/4/5
f 188/4/5 184/4/5 187/4/5
f 193/1/5 190/1/5 189/1/5
f 194/1/5 192/1/5 191/1/5
f 195/1/5 193/1/5 189/1/5
f 195/1/5 194/1/5 193/1/5
f 196/1/5 192/1/5 194/1/5
f 196/1/5 194/1/5 195/1/5
f 197/1/5 195/1/5 189/1/5
f 198/1/5 195/1/5 197/1/5
f 199/1/5 192/1/5 196/1/5
f 200/1/5 192/1/5 199/1/5
f 207/1/5 204/1/5 203/1/5
f 208/1/5 204/1/5 207/1/5
f 211/1/5 202/1/5 201/1/5
f 212/1/5 202/1/5 211/1/5
f 213/1/5 210/1/5 209/1/5
f 214/1/5 210/1/5 213/1/5
f 215/1/5 206/1/5 205/1/5
f 216/1/5 206/1/5 215/1/5
f 217/4/6 218/4/6 221/4/6
f 221/4/6 218/4/6 222/4/6
f 219/4/6 220/4/6 223/4/6
f 223/4/6 220/4/6 224/4/6
f 225/4/6 226/4/6 229/4/6
f 229/4/6 226/4/6 230/4/6
f 227/4/6 228/4/6 231/4/6
f 231/4/6 228/4/6 232/4/6
f 233/1/6 234/1/6 235/1/6
f 233/1/6 235/1/6 236/1/6
f 233/1/6 236/1/6 237/1/6
f 237/1/6 236/1/6 238/1/6
f 239/1/6 240/1/6 241/1/6
f 241/1/6 240/1/6 242/1/6
