# MagicaVoxel @ Ephtracy

# group
o 

# material
mtllib wheel.mtl
usemtl palette

# normals
vn -1 0 0
vn 1 0 0
vn 0 0 1
vn 0 0 -1
vn 0 -1 0
vn 0 1 0

# texcoords
vt 0.982422 0.5
vt 0.994141 0.5

# verts
v 0 2 0
v 0 2 -0.3
v 0 2.1 -0.1
v 0 2.1 -0.2
v 0 2.2 -0.1
v 0 2.2 -0.2
v 0 2.3 0
v 0 2.3 -0.3
v 0.1 2 0
v 0.1 2 -0.3
v 0.1 2.1 -0.1
v 0.1 2.1 -0.2
v 0.1 2.2 -0.1
v 0.1 2.2 -0.2
v 0.1 2.3 0
v 0.1 2.3 -0.3
v 0 2 0
v 0 2.3 0
v 0.1 2 0
v 0.1 2.3 0
v 0 2 -0.3
v 0 2.3 -0.3
v 0.1 2 -0.3
v 0.1 2.3 -0.3
v 0 2 0
v 0.1 2 0
v 0 2 -0.3
v 0.1 2 -0.3
v 0 2.3 0
v 0.1 2.3 0
v 0 2.3 -0.3
v 0.1 2.3 -0.3

# faces
f 3/2/1 2/2/1 1/2/1
f 4/2/1 2/2/1 3/2/1
f 5/2/1 3/2/1 1/2/1
f 5/1/1 4/1/1 3/1/1
f 6/2/1 2/2/1 4/2/1
f 6/1/1 4/1/1 5/1/1
f 7/2/1 5/2/1 1/2/1
f 7/2/1 6/2/1 5/2/1
f 8/2/1 2/2/1 6/2/1
f 8/2/1 6/2/1 7/2/1
f 9/2/2 10/2/2 11/2/2
f 11/2/2 10/2/2 12/2/2
f 9/2/2 11/2/2 13/2/2
f 11/1/2 12/1/2 13/1/2
f 12/2/2 10/2/2 14/2/2
f 13/1/2 12/1/2 14/1/2
f 9/2/2 13/2/2 15/2/2
f 13/2/2 14/2/2 15/2/2
f 14/2/2 10/2/2 16/2/2
f 15/2/2 14/2/2 16/2/2
f 19/2/3 18/2/3 17/2/3
f 20/2/3 18/2/3 19/2/3
f 21/2/4 22/2/4 23/2/4
f 23/2/4 22/2/4 24/2/4
f 27/2/5 26/2/5 25/2/5
f 28/2/5 26/2/5 27/2/5
f 29/2/6 30/2/6 31/2/6
f 31/2/6 30/2/6 32/2/6
